<svg xmlns="http://www.w3.org/2000/svg" viewBox="0 0 128 128" role="img" aria-label="Panda">
  <defs>
    <radialGradient id="fur" cx="38%" cy="26%" r="72%">
      <stop offset="0%" stop-color="#fffdf7"/>
      <stop offset="62%" stop-color="#f1eadf"/>
      <stop offset="100%" stop-color="#d7ccba"/>
    </radialGradient>
    <linearGradient id="ink" x1="20" y1="8" x2="106" y2="118" gradientUnits="userSpaceOnUse">
      <stop offset="0%" stop-color="#353b38"/>
      <stop offset="100%" stop-color="#111514"/>
    </linearGradient>
    <linearGradient id="bamboo" x1="95" y1="32" x2="112" y2="102" gradientUnits="userSpaceOnUse">
      <stop offset="0%" stop-color="#75b86f"/>
      <stop offset="100%" stop-color="#2f7e55"/>
    </linearGradient>
    <filter id="softShadow" x="-20%" y="-20%" width="140%" height="150%">
      <feDropShadow dx="0" dy="5" stdDeviation="4" flood-color="#241d18" flood-opacity=".2"/>
    </filter>
  </defs>

  <g filter="url(#softShadow)">
    <circle cx="37" cy="34" r="18" fill="url(#ink)"/>
    <circle cx="91" cy="34" r="18" fill="url(#ink)"/>
    <path fill="url(#fur)" d="M104 72c0 30.4-17.4 48-40 48S24 102.4 24 72c0-25.2 17.4-43 40-43s40 17.8 40 43Z"/>
    <path fill="#f8f2e8" d="M93 91c0 17.2-12.3 25.8-29 25.8S35 108.2 35 91c0-15.5 12.3-24.5 29-24.5S93 75.5 93 91Z"/>

    <ellipse cx="45" cy="66" rx="15.8" ry="19.2" fill="url(#ink)" transform="rotate(-26 45 66)"/>
    <ellipse cx="83" cy="66" rx="15.8" ry="19.2" fill="url(#ink)" transform="rotate(26 83 66)"/>
    <circle cx="49.2" cy="66.8" r="5.1" fill="#fffdf7"/>
    <circle cx="78.8" cy="66.8" r="5.1" fill="#fffdf7"/>
    <circle cx="50.5" cy="68.2" r="2.2" fill="#111514"/>
    <circle cx="77.5" cy="68.2" r="2.2" fill="#111514"/>

    <ellipse cx="64" cy="81.6" rx="7.4" ry="5.4" fill="#171b19"/>
    <path d="M57.3 91.2c3.7 4.8 9.7 4.8 13.4 0" fill="none" stroke="#171b19" stroke-width="3.8" stroke-linecap="round"/>
    <circle cx="43" cy="84" r="3" fill="#eeb9ae" opacity=".45"/>
    <circle cx="85" cy="84" r="3" fill="#eeb9ae" opacity=".45"/>

    <path fill="url(#ink)" d="M21.5 83.4c-8 11.3-8.6 24.2-1.4 28.3 7.9 4.5 18.5-3.8 24.1-18.6l-12.7-8.8c-3.1-2.1-7.9-3.8-10-.9Z"/>
    <path fill="url(#ink)" d="M106.5 83.4c8 11.3 8.6 24.2 1.4 28.3-7.9 4.5-18.5-3.8-24.1-18.6l12.7-8.8c3.1-2.1 7.9-3.8 10-.9Z"/>
    <path fill="url(#ink)" d="M46.5 105.8c-5.9 10.5-3.3 18 6.8 17.2 6.7-.5 9.2-5.7 10.7-13.9-7-.2-12.7-1.3-17.5-3.3Z"/>
    <path fill="url(#ink)" d="M81.5 105.8c5.9 10.5 3.3 18-6.8 17.2-6.7-.5-9.2-5.7-10.7-13.9 7-.2 12.7-1.3 17.5-3.3Z"/>

    <g transform="rotate(-13 104 69)">
      <rect x="101" y="37" width="8" height="66" rx="4" fill="url(#bamboo)"/>
      <path d="M99 51h12M98 69h13M99 87h12" stroke="#d5efc8" stroke-width="2" stroke-linecap="round" opacity=".75"/>
      <path d="M106 43c10-7 15-6 17-2-5 1-10 4-15 9" fill="#6bbf73"/>
      <path d="M108 60c10-6 15-4 17 1-5 .5-10 2.7-15 7" fill="#6bbf73"/>
    </g>
  </g>
</svg>
